<mxfile host="app.diagrams.net" modified="2023-05-17T20:22:34.471Z" agent="Mozilla/5.0 (Windows NT 10.0; Win64; x64; rv:109.0) Gecko/20100101 Firefox/113.0" etag="dgZhx_hPiI5h2KIZY99U" version="21.3.2" type="github">
  <diagram id="C5RBs43oDa-KdzZeNtuy" name="Page-1">
    <mxGraphModel dx="4261" dy="1371" grid="1" gridSize="10" guides="1" tooltips="1" connect="1" arrows="1" fold="1" page="1" pageScale="1" pageWidth="827" pageHeight="1169" math="0" shadow="0">
      <root>
        <mxCell id="WIyWlLk6GJQsqaUBKTNV-0" />
        <mxCell id="WIyWlLk6GJQsqaUBKTNV-1" parent="WIyWlLk6GJQsqaUBKTNV-0" />
        <mxCell id="zkfFHV4jXpPFQw0GAbJ--0" value="Game" style="swimlane;fontStyle=2;align=center;verticalAlign=top;childLayout=stackLayout;horizontal=1;startSize=26;horizontalStack=0;resizeParent=1;resizeLast=0;collapsible=1;marginBottom=0;rounded=0;shadow=0;strokeWidth=1;" parent="WIyWlLk6GJQsqaUBKTNV-1" vertex="1">
          <mxGeometry x="220" y="120" width="280" height="140" as="geometry">
            <mxRectangle x="230" y="140" width="160" height="26" as="alternateBounds" />
          </mxGeometry>
        </mxCell>
        <mxCell id="zkfFHV4jXpPFQw0GAbJ--1" value="Private StringÂ  Name_of_the_game" style="text;align=left;verticalAlign=top;spacingLeft=4;spacingRight=4;overflow=hidden;rotatable=0;points=[[0,0.5],[1,0.5]];portConstraint=eastwest;" parent="zkfFHV4jXpPFQw0GAbJ--0" vertex="1">
          <mxGeometry y="26" width="280" height="26" as="geometry" />
        </mxCell>
        <mxCell id="zkfFHV4jXpPFQw0GAbJ--4" value="" style="line;html=1;strokeWidth=1;align=left;verticalAlign=middle;spacingTop=-1;spacingLeft=3;spacingRight=3;rotatable=0;labelPosition=right;points=[];portConstraint=eastwest;" parent="zkfFHV4jXpPFQw0GAbJ--0" vertex="1">
          <mxGeometry y="52" width="280" height="8" as="geometry" />
        </mxCell>
        <mxCell id="eY1XQNZ8jxYmsoM6EKJw-1" value="&lt;div align=&quot;left&quot;&gt;New_game () &lt;i&gt;Creat a new game and give him a name &lt;/i&gt;&lt;br&gt;&lt;/div&gt;&lt;div align=&quot;left&quot;&gt;Save () &lt;i&gt;Save the game at this particular point &lt;br&gt;&lt;/i&gt;&lt;/div&gt;&lt;div align=&quot;left&quot;&gt;Load () &lt;i&gt;Load the game at this particular point &lt;br&gt;&lt;/i&gt;&lt;/div&gt;&lt;div align=&quot;left&quot;&gt;Help () &lt;br&gt;&lt;/div&gt;" style="text;strokeColor=none;align=left;fillColor=none;html=1;verticalAlign=middle;whiteSpace=wrap;rounded=0;" parent="zkfFHV4jXpPFQw0GAbJ--0" vertex="1">
          <mxGeometry y="60" width="280" height="80" as="geometry" />
        </mxCell>
        <mxCell id="5ESapDzCPnhvFcKWd6Ts-24" style="edgeStyle=orthogonalEdgeStyle;rounded=0;orthogonalLoop=1;jettySize=auto;html=1;entryX=0.678;entryY=1.02;entryDx=0;entryDy=0;entryPerimeter=0;dashed=1;" edge="1" parent="WIyWlLk6GJQsqaUBKTNV-1" source="zkfFHV4jXpPFQw0GAbJ--6" target="eY1XQNZ8jxYmsoM6EKJw-1">
          <mxGeometry relative="1" as="geometry" />
        </mxCell>
        <mxCell id="zkfFHV4jXpPFQw0GAbJ--6" value="Player" style="swimlane;fontStyle=0;align=center;verticalAlign=top;childLayout=stackLayout;horizontal=1;startSize=26;horizontalStack=0;resizeParent=1;resizeLast=0;collapsible=1;marginBottom=0;rounded=0;shadow=0;strokeWidth=1;" parent="WIyWlLk6GJQsqaUBKTNV-1" vertex="1">
          <mxGeometry x="460" y="336" width="350" height="198" as="geometry">
            <mxRectangle x="130" y="380" width="160" height="26" as="alternateBounds" />
          </mxGeometry>
        </mxCell>
        <mxCell id="eY1XQNZ8jxYmsoM6EKJw-14" value="&lt;div&gt;&lt;br&gt;&lt;/div&gt;&lt;div&gt;Private String Name&lt;/div&gt;&lt;div&gt;&lt;br&gt;&lt;/div&gt;Private int IA &lt;i&gt;if it is a IA it 1 else it&#39;s 0&lt;/i&gt;" style="text;html=1;strokeColor=none;fillColor=none;spacing=5;spacingTop=-20;whiteSpace=wrap;overflow=hidden;rounded=0;" parent="zkfFHV4jXpPFQw0GAbJ--6" vertex="1">
          <mxGeometry y="26" width="350" height="74" as="geometry" />
        </mxCell>
        <mxCell id="zkfFHV4jXpPFQw0GAbJ--9" value="" style="line;html=1;strokeWidth=1;align=left;verticalAlign=middle;spacingTop=-1;spacingLeft=3;spacingRight=3;rotatable=0;labelPosition=right;points=[];portConstraint=eastwest;" parent="zkfFHV4jXpPFQw0GAbJ--6" vertex="1">
          <mxGeometry y="100" width="350" height="8" as="geometry" />
        </mxCell>
        <mxCell id="eY1XQNZ8jxYmsoM6EKJw-15" value="&lt;div&gt;&lt;br&gt;&lt;/div&gt;&lt;div&gt;Player () &lt;i&gt;Create a new player and give if it&#39;s a player or not&lt;/i&gt; &lt;br&gt;&lt;/div&gt;&lt;div&gt;&lt;br&gt;&lt;/div&gt;" style="text;html=1;strokeColor=none;fillColor=none;spacing=5;spacingTop=-20;whiteSpace=wrap;overflow=hidden;rounded=0;" parent="zkfFHV4jXpPFQw0GAbJ--6" vertex="1">
          <mxGeometry y="108" width="350" height="90" as="geometry" />
        </mxCell>
        <mxCell id="5ESapDzCPnhvFcKWd6Ts-25" style="edgeStyle=orthogonalEdgeStyle;rounded=0;orthogonalLoop=1;jettySize=auto;html=1;entryX=0.367;entryY=1.073;entryDx=0;entryDy=0;entryPerimeter=0;dashed=1;" edge="1" parent="WIyWlLk6GJQsqaUBKTNV-1" source="zkfFHV4jXpPFQw0GAbJ--13" target="eY1XQNZ8jxYmsoM6EKJw-1">
          <mxGeometry relative="1" as="geometry" />
        </mxCell>
        <mxCell id="zkfFHV4jXpPFQw0GAbJ--13" value="Turn" style="swimlane;fontStyle=0;align=center;verticalAlign=top;childLayout=stackLayout;horizontal=1;startSize=26;horizontalStack=0;resizeParent=1;resizeLast=0;collapsible=1;marginBottom=0;rounded=0;shadow=0;strokeWidth=1;" parent="WIyWlLk6GJQsqaUBKTNV-1" vertex="1">
          <mxGeometry x="170" y="360" width="160" height="90" as="geometry">
            <mxRectangle x="340" y="380" width="170" height="26" as="alternateBounds" />
          </mxGeometry>
        </mxCell>
        <mxCell id="zkfFHV4jXpPFQw0GAbJ--14" value="Private Int nbTurn" style="text;align=left;verticalAlign=top;spacingLeft=4;spacingRight=4;overflow=hidden;rotatable=0;points=[[0,0.5],[1,0.5]];portConstraint=eastwest;" parent="zkfFHV4jXpPFQw0GAbJ--13" vertex="1">
          <mxGeometry y="26" width="160" height="26" as="geometry" />
        </mxCell>
        <mxCell id="zkfFHV4jXpPFQw0GAbJ--15" value="" style="line;html=1;strokeWidth=1;align=left;verticalAlign=middle;spacingTop=-1;spacingLeft=3;spacingRight=3;rotatable=0;labelPosition=right;points=[];portConstraint=eastwest;" parent="zkfFHV4jXpPFQw0GAbJ--13" vertex="1">
          <mxGeometry y="52" width="160" height="8" as="geometry" />
        </mxCell>
        <mxCell id="eY1XQNZ8jxYmsoM6EKJw-7" value="NewTurn() " style="text;strokeColor=none;align=left;fillColor=none;html=1;verticalAlign=middle;whiteSpace=wrap;rounded=0;" parent="zkfFHV4jXpPFQw0GAbJ--13" vertex="1">
          <mxGeometry y="60" width="160" height="30" as="geometry" />
        </mxCell>
        <mxCell id="5ESapDzCPnhvFcKWd6Ts-6" style="edgeStyle=orthogonalEdgeStyle;rounded=0;orthogonalLoop=1;jettySize=auto;html=1;entryX=1;entryY=0.25;entryDx=0;entryDy=0;dashed=1;" edge="1" parent="WIyWlLk6GJQsqaUBKTNV-1" source="eY1XQNZ8jxYmsoM6EKJw-16" target="5ESapDzCPnhvFcKWd6Ts-3">
          <mxGeometry relative="1" as="geometry" />
        </mxCell>
        <mxCell id="eY1XQNZ8jxYmsoM6EKJw-16" value="Character" style="swimlane;fontStyle=0;align=center;verticalAlign=top;childLayout=stackLayout;horizontal=1;startSize=26;horizontalStack=0;resizeParent=1;resizeLast=0;collapsible=1;marginBottom=0;rounded=0;shadow=0;strokeWidth=1;" parent="WIyWlLk6GJQsqaUBKTNV-1" vertex="1">
          <mxGeometry x="911" y="598.5" width="330" height="198" as="geometry">
            <mxRectangle x="130" y="380" width="160" height="26" as="alternateBounds" />
          </mxGeometry>
        </mxCell>
        <mxCell id="eY1XQNZ8jxYmsoM6EKJw-17" value="&lt;div&gt;&lt;br&gt;&lt;/div&gt;&lt;div&gt;Private String Name&lt;/div&gt;&lt;div&gt;&lt;br&gt;&lt;/div&gt;&lt;div&gt;&amp;nbsp;&lt;i&gt;Private School&lt;/i&gt;&lt;/div&gt;&lt;div&gt;&lt;i&gt;&lt;br&gt;&lt;/i&gt;&lt;/div&gt;" style="text;html=1;strokeColor=none;fillColor=none;spacing=5;spacingTop=-20;whiteSpace=wrap;overflow=hidden;rounded=0;" parent="eY1XQNZ8jxYmsoM6EKJw-16" vertex="1">
          <mxGeometry y="26" width="330" height="74" as="geometry" />
        </mxCell>
        <mxCell id="eY1XQNZ8jxYmsoM6EKJw-18" value="" style="line;html=1;strokeWidth=1;align=left;verticalAlign=middle;spacingTop=-1;spacingLeft=3;spacingRight=3;rotatable=0;labelPosition=right;points=[];portConstraint=eastwest;" parent="eY1XQNZ8jxYmsoM6EKJw-16" vertex="1">
          <mxGeometry y="100" width="330" height="8" as="geometry" />
        </mxCell>
        <mxCell id="eY1XQNZ8jxYmsoM6EKJw-19" value="&lt;div&gt;&lt;br&gt;&lt;/div&gt;&lt;div&gt;Character () &lt;i&gt;Create a new character&lt;/i&gt;&lt;/div&gt;&lt;div&gt;&lt;i&gt;&lt;br&gt;&lt;/i&gt;&lt;/div&gt;&lt;div&gt;&lt;i&gt;Death() supp the charactor&lt;br&gt;&lt;/i&gt; &lt;/div&gt;&lt;div&gt;&lt;br&gt;&lt;/div&gt;" style="text;html=1;strokeColor=none;fillColor=none;spacing=5;spacingTop=-20;whiteSpace=wrap;overflow=hidden;rounded=0;" parent="eY1XQNZ8jxYmsoM6EKJw-16" vertex="1">
          <mxGeometry y="108" width="330" height="90" as="geometry" />
        </mxCell>
        <mxCell id="eY1XQNZ8jxYmsoM6EKJw-21" value="Statististique " style="swimlane;fontStyle=0;align=center;verticalAlign=top;childLayout=stackLayout;horizontal=1;startSize=26;horizontalStack=0;resizeParent=1;resizeLast=0;collapsible=1;marginBottom=0;rounded=0;shadow=0;strokeWidth=1;" parent="WIyWlLk6GJQsqaUBKTNV-1" vertex="1">
          <mxGeometry x="1340" y="602" width="350" height="198" as="geometry">
            <mxRectangle x="130" y="380" width="160" height="26" as="alternateBounds" />
          </mxGeometry>
        </mxCell>
        <mxCell id="eY1XQNZ8jxYmsoM6EKJw-22" value="&lt;div&gt;&lt;br&gt;&lt;/div&gt;&lt;div&gt;Private int Life &lt;br&gt;&lt;/div&gt;&lt;div&gt;Private int Atk &lt;br&gt;&lt;/div&gt;&lt;div&gt;Private int Def &lt;br&gt;&lt;/div&gt;&lt;div&gt;Private int Magic&lt;br&gt;&lt;/div&gt;&lt;div&gt;Private int Speed &lt;br&gt;&lt;/div&gt;&lt;div&gt;&lt;br&gt;&lt;/div&gt;" style="text;html=1;strokeColor=none;fillColor=none;spacing=5;spacingTop=-20;whiteSpace=wrap;overflow=hidden;rounded=0;" parent="eY1XQNZ8jxYmsoM6EKJw-21" vertex="1">
          <mxGeometry y="26" width="350" height="74" as="geometry" />
        </mxCell>
        <mxCell id="eY1XQNZ8jxYmsoM6EKJw-23" value="" style="line;html=1;strokeWidth=1;align=left;verticalAlign=middle;spacingTop=-1;spacingLeft=3;spacingRight=3;rotatable=0;labelPosition=right;points=[];portConstraint=eastwest;" parent="eY1XQNZ8jxYmsoM6EKJw-21" vertex="1">
          <mxGeometry y="100" width="350" height="8" as="geometry" />
        </mxCell>
        <mxCell id="eY1XQNZ8jxYmsoM6EKJw-24" value="&lt;div&gt;&lt;br&gt;&lt;/div&gt;&lt;div&gt;Player () &lt;i&gt;Create a new player and give if it&#39;s a player or not&lt;/i&gt; &lt;br&gt;&lt;/div&gt;&lt;div&gt;Avreadge () &lt;i&gt;take the absolute of a value&lt;/i&gt;&lt;br&gt;&lt;/div&gt;" style="text;html=1;strokeColor=none;fillColor=none;spacing=5;spacingTop=-20;whiteSpace=wrap;overflow=hidden;rounded=0;" parent="eY1XQNZ8jxYmsoM6EKJw-21" vertex="1">
          <mxGeometry y="108" width="350" height="90" as="geometry" />
        </mxCell>
        <mxCell id="eY1XQNZ8jxYmsoM6EKJw-25" value="School" style="swimlane;fontStyle=0;align=center;verticalAlign=top;childLayout=stackLayout;horizontal=1;startSize=26;horizontalStack=0;resizeParent=1;resizeLast=0;collapsible=1;marginBottom=0;rounded=0;shadow=0;strokeWidth=1;" parent="WIyWlLk6GJQsqaUBKTNV-1" vertex="1">
          <mxGeometry x="2060" y="598.5" width="330" height="198" as="geometry">
            <mxRectangle x="130" y="380" width="160" height="26" as="alternateBounds" />
          </mxGeometry>
        </mxCell>
        <mxCell id="eY1XQNZ8jxYmsoM6EKJw-26" value="&lt;div&gt;&lt;br&gt;&lt;/div&gt;&lt;div&gt;Private String Name&lt;br&gt;&lt;/div&gt;" style="text;html=1;strokeColor=none;fillColor=none;spacing=5;spacingTop=-20;whiteSpace=wrap;overflow=hidden;rounded=0;" parent="eY1XQNZ8jxYmsoM6EKJw-25" vertex="1">
          <mxGeometry y="26" width="330" height="74" as="geometry" />
        </mxCell>
        <mxCell id="eY1XQNZ8jxYmsoM6EKJw-27" value="" style="line;html=1;strokeWidth=1;align=left;verticalAlign=middle;spacingTop=-1;spacingLeft=3;spacingRight=3;rotatable=0;labelPosition=right;points=[];portConstraint=eastwest;" parent="eY1XQNZ8jxYmsoM6EKJw-25" vertex="1">
          <mxGeometry y="100" width="330" height="8" as="geometry" />
        </mxCell>
        <mxCell id="eY1XQNZ8jxYmsoM6EKJw-28" value="&lt;div&gt;&lt;br&gt;&lt;/div&gt;&lt;div&gt;Classe () &lt;i&gt;Creat a new class&lt;/i&gt;&lt;/div&gt;&lt;div&gt;&lt;i&gt;&lt;br&gt;&lt;/i&gt;&lt;/div&gt;" style="text;html=1;strokeColor=none;fillColor=none;spacing=5;spacingTop=-20;whiteSpace=wrap;overflow=hidden;rounded=0;" parent="eY1XQNZ8jxYmsoM6EKJw-25" vertex="1">
          <mxGeometry y="108" width="330" height="90" as="geometry" />
        </mxCell>
        <mxCell id="eY1XQNZ8jxYmsoM6EKJw-30" value="" style="endArrow=block;endSize=10;endFill=0;shadow=0;strokeWidth=1;rounded=0;edgeStyle=elbowEdgeStyle;elbow=vertical;" parent="WIyWlLk6GJQsqaUBKTNV-1" source="eY1XQNZ8jxYmsoM6EKJw-32" edge="1">
          <mxGeometry width="160" relative="1" as="geometry">
            <mxPoint x="2490" y="912.5" as="sourcePoint" />
            <mxPoint x="2224.41" y="796.5" as="targetPoint" />
            <Array as="points">
              <mxPoint x="2320" y="862.5" />
              <mxPoint x="2224.41" y="826.5" />
              <mxPoint x="2254.41" y="846.5" />
              <mxPoint x="2224.41" y="816.5" />
              <mxPoint x="2224.41" y="816.5" />
              <mxPoint x="2224.41" y="806.5" />
              <mxPoint x="2611.41" y="846.5" />
              <mxPoint x="2224.41" y="846.5" />
              <mxPoint x="2224.41" y="845.5" />
            </Array>
          </mxGeometry>
        </mxCell>
        <mxCell id="eY1XQNZ8jxYmsoM6EKJw-32" value="Archer" style="swimlane;fontStyle=0;align=center;verticalAlign=top;childLayout=stackLayout;horizontal=1;startSize=26;horizontalStack=0;resizeParent=1;resizeLast=0;collapsible=1;marginBottom=0;rounded=0;shadow=0;strokeWidth=1;" parent="WIyWlLk6GJQsqaUBKTNV-1" vertex="1">
          <mxGeometry x="2570" y="882.5" width="330" height="198" as="geometry">
            <mxRectangle x="130" y="380" width="160" height="26" as="alternateBounds" />
          </mxGeometry>
        </mxCell>
        <mxCell id="eY1XQNZ8jxYmsoM6EKJw-33" value="&lt;div&gt;&lt;br&gt;&lt;/div&gt;&lt;div&gt;Private String Name&lt;br&gt;&lt;/div&gt;" style="text;html=1;strokeColor=none;fillColor=none;spacing=5;spacingTop=-20;whiteSpace=wrap;overflow=hidden;rounded=0;" parent="eY1XQNZ8jxYmsoM6EKJw-32" vertex="1">
          <mxGeometry y="26" width="330" height="74" as="geometry" />
        </mxCell>
        <mxCell id="eY1XQNZ8jxYmsoM6EKJw-34" value="" style="line;html=1;strokeWidth=1;align=left;verticalAlign=middle;spacingTop=-1;spacingLeft=3;spacingRight=3;rotatable=0;labelPosition=right;points=[];portConstraint=eastwest;" parent="eY1XQNZ8jxYmsoM6EKJw-32" vertex="1">
          <mxGeometry y="100" width="330" height="8" as="geometry" />
        </mxCell>
        <mxCell id="d22CbUn21td9B98kPqqL-2" style="edgeStyle=orthogonalEdgeStyle;rounded=0;orthogonalLoop=1;jettySize=auto;html=1;exitX=1;exitY=0;exitDx=0;exitDy=0;entryX=1;entryY=1;entryDx=0;entryDy=0;" parent="eY1XQNZ8jxYmsoM6EKJw-32" source="eY1XQNZ8jxYmsoM6EKJw-35" target="eY1XQNZ8jxYmsoM6EKJw-33" edge="1">
          <mxGeometry relative="1" as="geometry" />
        </mxCell>
        <mxCell id="eY1XQNZ8jxYmsoM6EKJw-35" value="&lt;div&gt;&lt;br&gt;&lt;/div&gt;&lt;div&gt;Player () &lt;i&gt;Create a new player and give if it&#39;s a player or not&lt;/i&gt; &lt;br&gt;&lt;/div&gt;&lt;div&gt;&lt;br&gt;&lt;/div&gt;" style="text;html=1;strokeColor=none;fillColor=none;spacing=5;spacingTop=-20;whiteSpace=wrap;overflow=hidden;rounded=0;" parent="eY1XQNZ8jxYmsoM6EKJw-32" vertex="1">
          <mxGeometry y="108" width="330" height="90" as="geometry" />
        </mxCell>
        <mxCell id="eY1XQNZ8jxYmsoM6EKJw-40" value="Wizard&#xa;" style="swimlane;fontStyle=0;align=center;verticalAlign=top;childLayout=stackLayout;horizontal=1;startSize=26;horizontalStack=0;resizeParent=1;resizeLast=0;collapsible=1;marginBottom=0;rounded=0;shadow=0;strokeWidth=1;" parent="WIyWlLk6GJQsqaUBKTNV-1" vertex="1">
          <mxGeometry x="2220" y="882.5" width="330" height="198" as="geometry">
            <mxRectangle x="130" y="380" width="160" height="26" as="alternateBounds" />
          </mxGeometry>
        </mxCell>
        <mxCell id="eY1XQNZ8jxYmsoM6EKJw-41" value="&lt;div&gt;&lt;br&gt;&lt;/div&gt;&lt;div&gt;Private String Name&lt;br&gt;&lt;/div&gt;" style="text;html=1;strokeColor=none;fillColor=none;spacing=5;spacingTop=-20;whiteSpace=wrap;overflow=hidden;rounded=0;" parent="eY1XQNZ8jxYmsoM6EKJw-40" vertex="1">
          <mxGeometry y="26" width="330" height="74" as="geometry" />
        </mxCell>
        <mxCell id="eY1XQNZ8jxYmsoM6EKJw-42" value="" style="line;html=1;strokeWidth=1;align=left;verticalAlign=middle;spacingTop=-1;spacingLeft=3;spacingRight=3;rotatable=0;labelPosition=right;points=[];portConstraint=eastwest;" parent="eY1XQNZ8jxYmsoM6EKJw-40" vertex="1">
          <mxGeometry y="100" width="330" height="8" as="geometry" />
        </mxCell>
        <mxCell id="eY1XQNZ8jxYmsoM6EKJw-43" value="&lt;div&gt;&lt;br&gt;&lt;/div&gt;&lt;div&gt;Player () &lt;i&gt;Create a new player and give if it&#39;s a player or not&lt;/i&gt; &lt;br&gt;&lt;/div&gt;&lt;div&gt;&lt;br&gt;&lt;/div&gt;" style="text;html=1;strokeColor=none;fillColor=none;spacing=5;spacingTop=-20;whiteSpace=wrap;overflow=hidden;rounded=0;" parent="eY1XQNZ8jxYmsoM6EKJw-40" vertex="1">
          <mxGeometry y="108" width="330" height="90" as="geometry" />
        </mxCell>
        <mxCell id="eY1XQNZ8jxYmsoM6EKJw-44" value="Saber" style="swimlane;fontStyle=0;align=center;verticalAlign=top;childLayout=stackLayout;horizontal=1;startSize=26;horizontalStack=0;resizeParent=1;resizeLast=0;collapsible=1;marginBottom=0;rounded=0;shadow=0;strokeWidth=1;" parent="WIyWlLk6GJQsqaUBKTNV-1" vertex="1">
          <mxGeometry x="1870" y="882.5" width="330" height="198" as="geometry">
            <mxRectangle x="130" y="380" width="160" height="26" as="alternateBounds" />
          </mxGeometry>
        </mxCell>
        <mxCell id="eY1XQNZ8jxYmsoM6EKJw-45" value="&lt;div&gt;&lt;br&gt;&lt;/div&gt;&lt;div&gt;Private String Name&lt;br&gt;&lt;/div&gt;" style="text;html=1;strokeColor=none;fillColor=none;spacing=5;spacingTop=-20;whiteSpace=wrap;overflow=hidden;rounded=0;" parent="eY1XQNZ8jxYmsoM6EKJw-44" vertex="1">
          <mxGeometry y="26" width="330" height="74" as="geometry" />
        </mxCell>
        <mxCell id="eY1XQNZ8jxYmsoM6EKJw-46" value="" style="line;html=1;strokeWidth=1;align=left;verticalAlign=middle;spacingTop=-1;spacingLeft=3;spacingRight=3;rotatable=0;labelPosition=right;points=[];portConstraint=eastwest;" parent="eY1XQNZ8jxYmsoM6EKJw-44" vertex="1">
          <mxGeometry y="100" width="330" height="8" as="geometry" />
        </mxCell>
        <mxCell id="eY1XQNZ8jxYmsoM6EKJw-47" value="&lt;div&gt;&lt;br&gt;&lt;/div&gt;&lt;div&gt;Player () &lt;i&gt;Create a new player and give if it&#39;s a player or not&lt;/i&gt; &lt;br&gt;&lt;/div&gt;&lt;div&gt;&lt;br&gt;&lt;/div&gt;" style="text;html=1;strokeColor=none;fillColor=none;spacing=5;spacingTop=-20;whiteSpace=wrap;overflow=hidden;rounded=0;" parent="eY1XQNZ8jxYmsoM6EKJw-44" vertex="1">
          <mxGeometry y="108" width="330" height="90" as="geometry" />
        </mxCell>
        <mxCell id="eY1XQNZ8jxYmsoM6EKJw-48" value="" style="endArrow=none;html=1;rounded=0;entryX=0.5;entryY=0;entryDx=0;entryDy=0;exitX=0.5;exitY=1;exitDx=0;exitDy=0;" parent="WIyWlLk6GJQsqaUBKTNV-1" source="eY1XQNZ8jxYmsoM6EKJw-28" target="eY1XQNZ8jxYmsoM6EKJw-44" edge="1">
          <mxGeometry width="50" height="50" relative="1" as="geometry">
            <mxPoint x="2180" y="852.5" as="sourcePoint" />
            <mxPoint x="2090" y="842.5" as="targetPoint" />
            <Array as="points">
              <mxPoint x="2225" y="862.5" />
              <mxPoint x="2035" y="862.5" />
            </Array>
          </mxGeometry>
        </mxCell>
        <mxCell id="eY1XQNZ8jxYmsoM6EKJw-49" value="" style="endArrow=none;html=1;rounded=0;exitX=0.492;exitY=-0.004;exitDx=0;exitDy=0;exitPerimeter=0;" parent="WIyWlLk6GJQsqaUBKTNV-1" source="eY1XQNZ8jxYmsoM6EKJw-40" edge="1">
          <mxGeometry width="50" height="50" relative="1" as="geometry">
            <mxPoint x="2383" y="882.5" as="sourcePoint" />
            <mxPoint x="2230" y="862.5" as="targetPoint" />
            <Array as="points">
              <mxPoint x="2382" y="862.5" />
            </Array>
          </mxGeometry>
        </mxCell>
        <mxCell id="eY1XQNZ8jxYmsoM6EKJw-50" value="Tableau" style="swimlane;fontStyle=0;align=center;verticalAlign=top;childLayout=stackLayout;horizontal=1;startSize=26;horizontalStack=0;resizeParent=1;resizeLast=0;collapsible=1;marginBottom=0;rounded=0;shadow=0;strokeWidth=1;" parent="WIyWlLk6GJQsqaUBKTNV-1" vertex="1">
          <mxGeometry x="170" y="585" width="160" height="215" as="geometry">
            <mxRectangle x="340" y="380" width="170" height="26" as="alternateBounds" />
          </mxGeometry>
        </mxCell>
        <mxCell id="eY1XQNZ8jxYmsoM6EKJw-51" value="Private Int nbTurn" style="text;align=left;verticalAlign=top;spacingLeft=4;spacingRight=4;overflow=hidden;rotatable=0;points=[[0,0.5],[1,0.5]];portConstraint=eastwest;" parent="eY1XQNZ8jxYmsoM6EKJw-50" vertex="1">
          <mxGeometry y="26" width="160" height="26" as="geometry" />
        </mxCell>
        <mxCell id="eY1XQNZ8jxYmsoM6EKJw-52" value="" style="line;html=1;strokeWidth=1;align=left;verticalAlign=middle;spacingTop=-1;spacingLeft=3;spacingRight=3;rotatable=0;labelPosition=right;points=[];portConstraint=eastwest;" parent="eY1XQNZ8jxYmsoM6EKJw-50" vertex="1">
          <mxGeometry y="52" width="160" height="8" as="geometry" />
        </mxCell>
        <mxCell id="eY1XQNZ8jxYmsoM6EKJw-53" value="&lt;div&gt;Tableau (int)&lt;/div&gt;&lt;div&gt;Init_Tableau()&lt;/div&gt;&lt;div&gt;EnableToMove(character)&lt;br&gt;&lt;/div&gt;&lt;div&gt;Move(Character)&lt;br&gt;&lt;/div&gt;" style="text;strokeColor=none;align=left;fillColor=none;html=1;verticalAlign=middle;whiteSpace=wrap;rounded=0;" parent="eY1XQNZ8jxYmsoM6EKJw-50" vertex="1">
          <mxGeometry y="60" width="160" height="120" as="geometry" />
        </mxCell>
        <mxCell id="eY1XQNZ8jxYmsoM6EKJw-55" value="" style="endArrow=block;endSize=10;endFill=0;shadow=0;strokeWidth=1;rounded=0;edgeStyle=elbowEdgeStyle;elbow=vertical;entryX=0.456;entryY=1.072;entryDx=0;entryDy=0;entryPerimeter=0;exitX=0.457;exitY=0.009;exitDx=0;exitDy=0;exitPerimeter=0;" parent="WIyWlLk6GJQsqaUBKTNV-1" source="eY1XQNZ8jxYmsoM6EKJw-50" target="eY1XQNZ8jxYmsoM6EKJw-7" edge="1">
          <mxGeometry width="160" relative="1" as="geometry">
            <mxPoint x="250" y="580" as="sourcePoint" />
            <mxPoint x="240" y="458" as="targetPoint" />
            <Array as="points">
              <mxPoint x="240" y="580" />
              <mxPoint x="243" y="550" />
              <mxPoint x="250" y="540" />
              <mxPoint x="410" y="518" />
              <mxPoint x="240" y="488" />
              <mxPoint x="270" y="508" />
              <mxPoint x="240" y="478" />
              <mxPoint x="240" y="478" />
              <mxPoint x="240" y="468" />
              <mxPoint x="627" y="508" />
              <mxPoint x="240" y="508" />
              <mxPoint x="240" y="507" />
            </Array>
          </mxGeometry>
        </mxCell>
        <mxCell id="eY1XQNZ8jxYmsoM6EKJw-58" value="Stuff" style="swimlane;fontStyle=0;align=center;verticalAlign=top;childLayout=stackLayout;horizontal=1;startSize=26;horizontalStack=0;resizeParent=1;resizeLast=0;collapsible=1;marginBottom=0;rounded=0;shadow=0;strokeWidth=1;" parent="WIyWlLk6GJQsqaUBKTNV-1" vertex="1">
          <mxGeometry x="1430" y="850" width="160" height="210" as="geometry">
            <mxRectangle x="340" y="380" width="170" height="26" as="alternateBounds" />
          </mxGeometry>
        </mxCell>
        <mxCell id="eY1XQNZ8jxYmsoM6EKJw-59" value="Private Int nbTurn" style="text;align=left;verticalAlign=top;spacingLeft=4;spacingRight=4;overflow=hidden;rotatable=0;points=[[0,0.5],[1,0.5]];portConstraint=eastwest;" parent="eY1XQNZ8jxYmsoM6EKJw-58" vertex="1">
          <mxGeometry y="26" width="160" height="26" as="geometry" />
        </mxCell>
        <mxCell id="eY1XQNZ8jxYmsoM6EKJw-60" value="" style="line;html=1;strokeWidth=1;align=left;verticalAlign=middle;spacingTop=-1;spacingLeft=3;spacingRight=3;rotatable=0;labelPosition=right;points=[];portConstraint=eastwest;" parent="eY1XQNZ8jxYmsoM6EKJw-58" vertex="1">
          <mxGeometry y="52" width="160" height="8" as="geometry" />
        </mxCell>
        <mxCell id="eY1XQNZ8jxYmsoM6EKJw-61" value="&lt;div&gt;Tableau (int)&lt;/div&gt;&lt;div&gt;Init_Tableau()&lt;/div&gt;&lt;div&gt;Move(Character)&lt;br&gt;&lt;/div&gt;" style="text;strokeColor=none;align=left;fillColor=none;html=1;verticalAlign=middle;whiteSpace=wrap;rounded=0;" parent="eY1XQNZ8jxYmsoM6EKJw-58" vertex="1">
          <mxGeometry y="60" width="160" height="120" as="geometry" />
        </mxCell>
        <mxCell id="5ESapDzCPnhvFcKWd6Ts-9" style="edgeStyle=orthogonalEdgeStyle;rounded=0;orthogonalLoop=1;jettySize=auto;html=1;dashed=1;" edge="1" parent="WIyWlLk6GJQsqaUBKTNV-1" source="eY1XQNZ8jxYmsoM6EKJw-62" target="eY1XQNZ8jxYmsoM6EKJw-61">
          <mxGeometry relative="1" as="geometry" />
        </mxCell>
        <mxCell id="eY1XQNZ8jxYmsoM6EKJw-62" value="Item&#xa;" style="swimlane;fontStyle=0;align=center;verticalAlign=top;childLayout=stackLayout;horizontal=1;startSize=26;horizontalStack=0;resizeParent=1;resizeLast=0;collapsible=1;marginBottom=0;rounded=0;shadow=0;strokeWidth=1;" parent="WIyWlLk6GJQsqaUBKTNV-1" vertex="1">
          <mxGeometry x="1670" y="850" width="160" height="218" as="geometry">
            <mxRectangle x="340" y="380" width="170" height="26" as="alternateBounds" />
          </mxGeometry>
        </mxCell>
        <mxCell id="eY1XQNZ8jxYmsoM6EKJw-63" value="Private String Name&#xa;&#xa;Private Int use&#xa;" style="text;align=left;verticalAlign=top;spacingLeft=4;spacingRight=4;overflow=hidden;rotatable=0;points=[[0,0.5],[1,0.5]];portConstraint=eastwest;" parent="eY1XQNZ8jxYmsoM6EKJw-62" vertex="1">
          <mxGeometry y="26" width="160" height="64" as="geometry" />
        </mxCell>
        <mxCell id="eY1XQNZ8jxYmsoM6EKJw-64" value="" style="line;html=1;strokeWidth=1;align=left;verticalAlign=middle;spacingTop=-1;spacingLeft=3;spacingRight=3;rotatable=0;labelPosition=right;points=[];portConstraint=eastwest;" parent="eY1XQNZ8jxYmsoM6EKJw-62" vertex="1">
          <mxGeometry y="90" width="160" height="8" as="geometry" />
        </mxCell>
        <mxCell id="eY1XQNZ8jxYmsoM6EKJw-69" value="&lt;div&gt;Tool() &lt;i&gt;Creat a tool&lt;/i&gt;&lt;/div&gt;" style="text;strokeColor=none;align=left;fillColor=none;html=1;verticalAlign=middle;whiteSpace=wrap;rounded=0;" parent="eY1XQNZ8jxYmsoM6EKJw-62" vertex="1">
          <mxGeometry y="98" width="160" height="38" as="geometry" />
        </mxCell>
        <mxCell id="5ESapDzCPnhvFcKWd6Ts-10" style="edgeStyle=orthogonalEdgeStyle;rounded=0;orthogonalLoop=1;jettySize=auto;html=1;entryX=0;entryY=1;entryDx=0;entryDy=0;" edge="1" parent="WIyWlLk6GJQsqaUBKTNV-1" source="9GAeD1skeCPFFFjlPAuI-0" target="eY1XQNZ8jxYmsoM6EKJw-62">
          <mxGeometry relative="1" as="geometry" />
        </mxCell>
        <mxCell id="9GAeD1skeCPFFFjlPAuI-0" value="Arme" style="swimlane;fontStyle=0;align=center;verticalAlign=top;childLayout=stackLayout;horizontal=1;startSize=26;horizontalStack=0;resizeParent=1;resizeLast=0;collapsible=1;marginBottom=0;rounded=0;shadow=0;strokeWidth=1;" parent="WIyWlLk6GJQsqaUBKTNV-1" vertex="1">
          <mxGeometry x="1400" y="1150" width="160" height="218" as="geometry">
            <mxRectangle x="340" y="380" width="170" height="26" as="alternateBounds" />
          </mxGeometry>
        </mxCell>
        <mxCell id="9GAeD1skeCPFFFjlPAuI-1" value="Private String Name&#xa;&#xa;Private Int place&#xa;" style="text;align=left;verticalAlign=top;spacingLeft=4;spacingRight=4;overflow=hidden;rotatable=0;points=[[0,0.5],[1,0.5]];portConstraint=eastwest;" parent="9GAeD1skeCPFFFjlPAuI-0" vertex="1">
          <mxGeometry y="26" width="160" height="64" as="geometry" />
        </mxCell>
        <mxCell id="9GAeD1skeCPFFFjlPAuI-2" value="" style="line;html=1;strokeWidth=1;align=left;verticalAlign=middle;spacingTop=-1;spacingLeft=3;spacingRight=3;rotatable=0;labelPosition=right;points=[];portConstraint=eastwest;" parent="9GAeD1skeCPFFFjlPAuI-0" vertex="1">
          <mxGeometry y="90" width="160" height="8" as="geometry" />
        </mxCell>
        <mxCell id="9GAeD1skeCPFFFjlPAuI-4" value="&lt;div&gt;Tool() &lt;i&gt;Creat a tool&lt;/i&gt;&lt;/div&gt;" style="text;strokeColor=none;align=left;fillColor=none;html=1;verticalAlign=middle;whiteSpace=wrap;rounded=0;" parent="9GAeD1skeCPFFFjlPAuI-0" vertex="1">
          <mxGeometry y="98" width="160" height="38" as="geometry" />
        </mxCell>
        <mxCell id="9GAeD1skeCPFFFjlPAuI-3" value="&lt;div&gt;Tool() &lt;i&gt;Creat a tool&lt;/i&gt;&lt;/div&gt;" style="text;strokeColor=none;align=left;fillColor=none;html=1;verticalAlign=middle;whiteSpace=wrap;rounded=0;" parent="9GAeD1skeCPFFFjlPAuI-0" vertex="1">
          <mxGeometry y="136" width="160" height="38" as="geometry" />
        </mxCell>
        <mxCell id="5ESapDzCPnhvFcKWd6Ts-4" style="edgeStyle=orthogonalEdgeStyle;rounded=0;orthogonalLoop=1;jettySize=auto;html=1;entryX=0.5;entryY=1;entryDx=0;entryDy=0;dashed=1;" edge="1" parent="WIyWlLk6GJQsqaUBKTNV-1" source="5ESapDzCPnhvFcKWd6Ts-0" target="eY1XQNZ8jxYmsoM6EKJw-15">
          <mxGeometry relative="1" as="geometry" />
        </mxCell>
        <mxCell id="5ESapDzCPnhvFcKWd6Ts-0" value="Team&#xa;" style="swimlane;fontStyle=0;align=center;verticalAlign=top;childLayout=stackLayout;horizontal=1;startSize=26;horizontalStack=0;resizeParent=1;resizeLast=0;collapsible=1;marginBottom=0;rounded=0;shadow=0;strokeWidth=1;" vertex="1" parent="WIyWlLk6GJQsqaUBKTNV-1">
          <mxGeometry x="555" y="590" width="160" height="215" as="geometry">
            <mxRectangle x="340" y="380" width="170" height="26" as="alternateBounds" />
          </mxGeometry>
        </mxCell>
        <mxCell id="5ESapDzCPnhvFcKWd6Ts-1" value="Private Int nbTurn" style="text;align=left;verticalAlign=top;spacingLeft=4;spacingRight=4;overflow=hidden;rotatable=0;points=[[0,0.5],[1,0.5]];portConstraint=eastwest;" vertex="1" parent="5ESapDzCPnhvFcKWd6Ts-0">
          <mxGeometry y="26" width="160" height="26" as="geometry" />
        </mxCell>
        <mxCell id="5ESapDzCPnhvFcKWd6Ts-2" value="" style="line;html=1;strokeWidth=1;align=left;verticalAlign=middle;spacingTop=-1;spacingLeft=3;spacingRight=3;rotatable=0;labelPosition=right;points=[];portConstraint=eastwest;" vertex="1" parent="5ESapDzCPnhvFcKWd6Ts-0">
          <mxGeometry y="52" width="160" height="8" as="geometry" />
        </mxCell>
        <mxCell id="5ESapDzCPnhvFcKWd6Ts-3" value="&lt;div&gt;Tableau (int)&lt;/div&gt;&lt;div&gt;Init_Tableau()&lt;/div&gt;&lt;div&gt;EnableToMove(character)&lt;br&gt;&lt;/div&gt;&lt;div&gt;Move(Character)&lt;br&gt;&lt;/div&gt;" style="text;strokeColor=none;align=left;fillColor=none;html=1;verticalAlign=middle;whiteSpace=wrap;rounded=0;" vertex="1" parent="5ESapDzCPnhvFcKWd6Ts-0">
          <mxGeometry y="60" width="160" height="120" as="geometry" />
        </mxCell>
        <mxCell id="5ESapDzCPnhvFcKWd6Ts-7" style="edgeStyle=orthogonalEdgeStyle;rounded=0;orthogonalLoop=1;jettySize=auto;html=1;entryX=1;entryY=0.5;entryDx=0;entryDy=0;dashed=1;" edge="1" parent="WIyWlLk6GJQsqaUBKTNV-1" source="eY1XQNZ8jxYmsoM6EKJw-22" target="eY1XQNZ8jxYmsoM6EKJw-17">
          <mxGeometry relative="1" as="geometry" />
        </mxCell>
        <mxCell id="5ESapDzCPnhvFcKWd6Ts-8" style="edgeStyle=orthogonalEdgeStyle;rounded=0;orthogonalLoop=1;jettySize=auto;html=1;entryX=0.75;entryY=1;entryDx=0;entryDy=0;dashed=1;" edge="1" parent="WIyWlLk6GJQsqaUBKTNV-1" source="eY1XQNZ8jxYmsoM6EKJw-61" target="eY1XQNZ8jxYmsoM6EKJw-19">
          <mxGeometry relative="1" as="geometry" />
        </mxCell>
        <mxCell id="5ESapDzCPnhvFcKWd6Ts-11" style="edgeStyle=orthogonalEdgeStyle;rounded=0;orthogonalLoop=1;jettySize=auto;html=1;entryX=1;entryY=0.25;entryDx=0;entryDy=0;dashed=1;" edge="1" parent="WIyWlLk6GJQsqaUBKTNV-1" source="eY1XQNZ8jxYmsoM6EKJw-26" target="eY1XQNZ8jxYmsoM6EKJw-17">
          <mxGeometry relative="1" as="geometry">
            <mxPoint x="1300" y="570" as="targetPoint" />
            <Array as="points">
              <mxPoint x="2345" y="550.5" />
              <mxPoint x="1300" y="550.5" />
              <mxPoint x="1300" y="643.5" />
            </Array>
          </mxGeometry>
        </mxCell>
        <mxCell id="5ESapDzCPnhvFcKWd6Ts-34" style="edgeStyle=orthogonalEdgeStyle;rounded=0;orthogonalLoop=1;jettySize=auto;html=1;entryX=0;entryY=0.5;entryDx=0;entryDy=0;dashed=1;" edge="1" parent="WIyWlLk6GJQsqaUBKTNV-1" source="5ESapDzCPnhvFcKWd6Ts-12" target="eY1XQNZ8jxYmsoM6EKJw-53">
          <mxGeometry relative="1" as="geometry" />
        </mxCell>
        <mxCell id="5ESapDzCPnhvFcKWd6Ts-12" value="Selector" style="swimlane;fontStyle=0;align=center;verticalAlign=top;childLayout=stackLayout;horizontal=1;startSize=26;horizontalStack=0;resizeParent=1;resizeLast=0;collapsible=1;marginBottom=0;rounded=0;shadow=0;strokeWidth=1;" vertex="1" parent="WIyWlLk6GJQsqaUBKTNV-1">
          <mxGeometry x="-150" y="590" width="160" height="215" as="geometry">
            <mxRectangle x="340" y="380" width="170" height="26" as="alternateBounds" />
          </mxGeometry>
        </mxCell>
        <mxCell id="5ESapDzCPnhvFcKWd6Ts-13" value="Private Int nbTurn" style="text;align=left;verticalAlign=top;spacingLeft=4;spacingRight=4;overflow=hidden;rotatable=0;points=[[0,0.5],[1,0.5]];portConstraint=eastwest;" vertex="1" parent="5ESapDzCPnhvFcKWd6Ts-12">
          <mxGeometry y="26" width="160" height="26" as="geometry" />
        </mxCell>
        <mxCell id="5ESapDzCPnhvFcKWd6Ts-14" value="" style="line;html=1;strokeWidth=1;align=left;verticalAlign=middle;spacingTop=-1;spacingLeft=3;spacingRight=3;rotatable=0;labelPosition=right;points=[];portConstraint=eastwest;" vertex="1" parent="5ESapDzCPnhvFcKWd6Ts-12">
          <mxGeometry y="52" width="160" height="8" as="geometry" />
        </mxCell>
        <mxCell id="5ESapDzCPnhvFcKWd6Ts-15" value="&lt;div&gt;Tableau (int)&lt;/div&gt;&lt;div&gt;Init_Tableau()&lt;/div&gt;&lt;div&gt;EnableToMove(character)&lt;br&gt;&lt;/div&gt;&lt;div&gt;Move(Character)&lt;br&gt;&lt;/div&gt;" style="text;strokeColor=none;align=left;fillColor=none;html=1;verticalAlign=middle;whiteSpace=wrap;rounded=0;" vertex="1" parent="5ESapDzCPnhvFcKWd6Ts-12">
          <mxGeometry y="60" width="160" height="120" as="geometry" />
        </mxCell>
        <mxCell id="5ESapDzCPnhvFcKWd6Ts-16" value="Menu" style="swimlane;fontStyle=0;align=center;verticalAlign=top;childLayout=stackLayout;horizontal=1;startSize=26;horizontalStack=0;resizeParent=1;resizeLast=0;collapsible=1;marginBottom=0;rounded=0;shadow=0;strokeWidth=1;" vertex="1" parent="WIyWlLk6GJQsqaUBKTNV-1">
          <mxGeometry x="-444" y="585" width="160" height="215" as="geometry">
            <mxRectangle x="340" y="380" width="170" height="26" as="alternateBounds" />
          </mxGeometry>
        </mxCell>
        <mxCell id="5ESapDzCPnhvFcKWd6Ts-17" value="Private Int nbTurn" style="text;align=left;verticalAlign=top;spacingLeft=4;spacingRight=4;overflow=hidden;rotatable=0;points=[[0,0.5],[1,0.5]];portConstraint=eastwest;" vertex="1" parent="5ESapDzCPnhvFcKWd6Ts-16">
          <mxGeometry y="26" width="160" height="26" as="geometry" />
        </mxCell>
        <mxCell id="5ESapDzCPnhvFcKWd6Ts-18" value="" style="line;html=1;strokeWidth=1;align=left;verticalAlign=middle;spacingTop=-1;spacingLeft=3;spacingRight=3;rotatable=0;labelPosition=right;points=[];portConstraint=eastwest;" vertex="1" parent="5ESapDzCPnhvFcKWd6Ts-16">
          <mxGeometry y="52" width="160" height="8" as="geometry" />
        </mxCell>
        <mxCell id="5ESapDzCPnhvFcKWd6Ts-19" value="&lt;div&gt;Tableau (int)&lt;/div&gt;&lt;div&gt;Init_Tableau()&lt;/div&gt;&lt;div&gt;EnableToMove(character)&lt;br&gt;&lt;/div&gt;&lt;div&gt;Move(Character)&lt;br&gt;&lt;/div&gt;" style="text;strokeColor=none;align=left;fillColor=none;html=1;verticalAlign=middle;whiteSpace=wrap;rounded=0;" vertex="1" parent="5ESapDzCPnhvFcKWd6Ts-16">
          <mxGeometry y="60" width="160" height="120" as="geometry" />
        </mxCell>
        <mxCell id="5ESapDzCPnhvFcKWd6Ts-33" value="" style="group" vertex="1" connectable="0" parent="WIyWlLk6GJQsqaUBKTNV-1">
          <mxGeometry x="-1630" y="40" width="803" height="390" as="geometry" />
        </mxCell>
        <mxCell id="5ESapDzCPnhvFcKWd6Ts-30" value="" style="group" vertex="1" connectable="0" parent="5ESapDzCPnhvFcKWd6Ts-33">
          <mxGeometry width="510" height="390" as="geometry" />
        </mxCell>
        <mxCell id="5ESapDzCPnhvFcKWd6Ts-26" value="" style="rounded=0;whiteSpace=wrap;html=1;" vertex="1" parent="5ESapDzCPnhvFcKWd6Ts-30">
          <mxGeometry width="510" height="390" as="geometry" />
        </mxCell>
        <mxCell id="5ESapDzCPnhvFcKWd6Ts-29" value="" style="rounded=0;whiteSpace=wrap;html=1;" vertex="1" parent="5ESapDzCPnhvFcKWd6Ts-30">
          <mxGeometry width="510" height="120" as="geometry" />
        </mxCell>
        <mxCell id="5ESapDzCPnhvFcKWd6Ts-28" value="&lt;font style=&quot;font-size: 60px;&quot;&gt;Legende&lt;/font&gt;" style="text;html=1;strokeColor=none;fillColor=none;spacing=5;spacingTop=-20;whiteSpace=wrap;overflow=hidden;rounded=0;" vertex="1" parent="5ESapDzCPnhvFcKWd6Ts-30">
          <mxGeometry x="120" y="20" width="240" height="80" as="geometry" />
        </mxCell>
        <mxCell id="5ESapDzCPnhvFcKWd6Ts-31" value="" style="endArrow=classic;html=1;rounded=0;" edge="1" parent="5ESapDzCPnhvFcKWd6Ts-30">
          <mxGeometry width="50" height="50" relative="1" as="geometry">
            <mxPoint x="30" y="170" as="sourcePoint" />
            <mxPoint x="180" y="170" as="targetPoint" />
          </mxGeometry>
        </mxCell>
        <mxCell id="5ESapDzCPnhvFcKWd6Ts-32" value="" style="endArrow=classic;html=1;rounded=0;dashed=1;" edge="1" parent="5ESapDzCPnhvFcKWd6Ts-30">
          <mxGeometry width="50" height="50" relative="1" as="geometry">
            <mxPoint x="30" y="220" as="sourcePoint" />
            <mxPoint x="180" y="220" as="targetPoint" />
          </mxGeometry>
        </mxCell>
        <mxCell id="5ESapDzCPnhvFcKWd6Ts-36" value="&lt;font style=&quot;font-size: 24px;&quot;&gt;Herited from&lt;br&gt;&lt;/font&gt;" style="text;html=1;strokeColor=none;fillColor=none;align=center;verticalAlign=middle;whiteSpace=wrap;rounded=0;" vertex="1" parent="5ESapDzCPnhvFcKWd6Ts-30">
          <mxGeometry x="225" y="150" width="255" height="30" as="geometry" />
        </mxCell>
        <mxCell id="5ESapDzCPnhvFcKWd6Ts-37" value="&lt;font style=&quot;font-size: 24px;&quot;&gt;Objet in &lt;/font&gt;" style="text;html=1;strokeColor=none;fillColor=none;align=center;verticalAlign=middle;whiteSpace=wrap;rounded=0;" vertex="1" parent="5ESapDzCPnhvFcKWd6Ts-30">
          <mxGeometry x="210" y="200" width="255" height="30" as="geometry" />
        </mxCell>
        <mxCell id="5ESapDzCPnhvFcKWd6Ts-20" value="Page&#xa;" style="swimlane;fontStyle=0;align=center;verticalAlign=top;childLayout=stackLayout;horizontal=1;startSize=26;horizontalStack=0;resizeParent=1;resizeLast=0;collapsible=1;marginBottom=0;rounded=0;shadow=0;strokeWidth=1;" vertex="1" parent="WIyWlLk6GJQsqaUBKTNV-1">
          <mxGeometry x="-740" y="585" width="160" height="215" as="geometry">
            <mxRectangle x="340" y="380" width="170" height="26" as="alternateBounds" />
          </mxGeometry>
        </mxCell>
        <mxCell id="5ESapDzCPnhvFcKWd6Ts-21" value="Private Int nbTurn" style="text;align=left;verticalAlign=top;spacingLeft=4;spacingRight=4;overflow=hidden;rotatable=0;points=[[0,0.5],[1,0.5]];portConstraint=eastwest;" vertex="1" parent="5ESapDzCPnhvFcKWd6Ts-20">
          <mxGeometry y="26" width="160" height="26" as="geometry" />
        </mxCell>
        <mxCell id="5ESapDzCPnhvFcKWd6Ts-22" value="" style="line;html=1;strokeWidth=1;align=left;verticalAlign=middle;spacingTop=-1;spacingLeft=3;spacingRight=3;rotatable=0;labelPosition=right;points=[];portConstraint=eastwest;" vertex="1" parent="5ESapDzCPnhvFcKWd6Ts-20">
          <mxGeometry y="52" width="160" height="8" as="geometry" />
        </mxCell>
        <mxCell id="5ESapDzCPnhvFcKWd6Ts-23" value="&lt;div&gt;Tableau (int)&lt;/div&gt;&lt;div&gt;Init_Tableau()&lt;/div&gt;&lt;div&gt;EnableToMove(character)&lt;br&gt;&lt;/div&gt;&lt;div&gt;Move(Character)&lt;br&gt;&lt;/div&gt;" style="text;strokeColor=none;align=left;fillColor=none;html=1;verticalAlign=middle;whiteSpace=wrap;rounded=0;" vertex="1" parent="5ESapDzCPnhvFcKWd6Ts-20">
          <mxGeometry y="60" width="160" height="120" as="geometry" />
        </mxCell>
        <mxCell id="5ESapDzCPnhvFcKWd6Ts-38" style="edgeStyle=orthogonalEdgeStyle;rounded=0;orthogonalLoop=1;jettySize=auto;html=1;entryX=0;entryY=0.5;entryDx=0;entryDy=0;dashed=1;" edge="1" parent="WIyWlLk6GJQsqaUBKTNV-1" source="5ESapDzCPnhvFcKWd6Ts-23" target="5ESapDzCPnhvFcKWd6Ts-19">
          <mxGeometry relative="1" as="geometry" />
        </mxCell>
        <mxCell id="5ESapDzCPnhvFcKWd6Ts-39" value="10:1" style="text;html=1;strokeColor=none;fillColor=none;align=center;verticalAlign=middle;whiteSpace=wrap;rounded=0;" vertex="1" parent="WIyWlLk6GJQsqaUBKTNV-1">
          <mxGeometry x="-580" y="665" width="60" height="30" as="geometry" />
        </mxCell>
      </root>
    </mxGraphModel>
  </diagram>
</mxfile>
